<svg width="85" height="39" viewBox="0 0 85 39" fill="none" xmlns="http://www.w3.org/2000/svg">
<g id="Frame 11">
<g id="Logo">
<g id="Group">
<path id="PIZZA" fill-rule="evenodd" clip-rule="evenodd" d="M39.3726 19.956C39.4481 20.3584 39.8254 20.6352 40.2279 20.5597C40.6304 20.4842 40.9071 20.1069 40.8316 19.7044C40.7058 18.8994 40.6555 17.8178 40.6807 16.9877C40.7058 16.56 40.7058 16.0569 40.6807 15.4783C40.5549 10.9504 40.3285 7.55446 40.0015 5.31565C39.6745 3.00137 38.618 1.1902 36.2282 1.4166C35.1465 1.51722 34.7189 1.71846 34.4422 2.90075C34.2714 3.60815 34.2899 4.43381 34.3141 5.51536V5.5154L34.3164 5.61751C34.3416 6.19608 34.3416 6.49794 34.3416 6.54825C34.3416 8.50489 34.4147 10.5347 34.513 13.2619L34.5177 13.3905L34.6183 16.5097C34.6937 17.5914 34.6937 18.7737 34.4925 19.6541C34.3919 20.0566 34.6183 20.4339 35.0208 20.5345C35.4232 20.6352 35.8006 20.4088 35.9012 20.0063C36.1779 18.9246 36.1527 17.3901 36.0773 16.4594C36.0521 16.1827 36.0018 14.6985 35.9263 12.0572C36.0018 12.0824 36.0521 12.0824 36.1276 12.0824C36.3791 12.0824 36.9326 12.1075 37.7878 12.1579C38.3664 12.183 38.794 12.2082 39.1211 12.2333C39.1277 12.4404 39.1362 12.6706 39.1455 12.9234L39.1455 12.9248C39.1712 13.6235 39.2032 14.4948 39.2217 15.5287C39.2468 16.1072 39.2468 16.5852 39.2217 16.9373C39.1965 17.8178 39.2468 19.0504 39.3726 19.956ZM1.56438 20.7861C1.96686 20.8112 2.31904 20.5094 2.34419 20.1069C2.52028 18.0693 2.54543 15.755 2.46997 13.1641C4.33145 12.6358 5.48859 11.7554 5.96654 10.5228C6.39418 9.31532 6.29355 7.0262 5.68983 5.13956C5.01064 2.92591 3.65226 1.24051 1.71531 1.71846C1.08643 1.84424 0.683951 2.09579 0.482709 2.44796C0.407244 2.54858 0.382089 2.67436 0.382089 2.80013C0.356934 2.85044 0.356934 2.92591 0.356934 3.00137V3.47932C0.381462 4.14159 0.40599 4.4451 0.593765 6.76859L0.608485 6.95074C1.03612 12.5855 1.13674 16.9373 0.885192 20.0063C0.860037 20.4088 1.1619 20.7609 1.56438 20.7861ZM2.3945 11.6548C2.31904 10.3467 2.21842 8.73675 2.06749 6.85012C1.86624 4.63646 1.84109 4.05789 1.81593 3.42901V3.17746L2.01717 3.12715C2.46997 3.02653 2.89761 3.17746 3.27493 3.57994C4.0799 4.46038 4.65847 6.37217 4.75909 8.15819C4.85971 9.96936 4.8094 10.8749 2.3945 11.6548ZM11.2491 20.5345C10.1675 20.6603 9.28702 20.7106 8.60783 20.6855C8.20535 20.6855 7.90349 20.3333 7.90349 19.9308C7.90349 19.5283 8.25566 19.2265 8.65814 19.2265C9.21155 19.2516 9.89074 19.2013 10.6706 19.1258C10.6631 19.0288 10.6556 18.9119 10.6469 18.7744C10.626 18.4484 10.5979 18.0066 10.5448 17.4404C10.3516 15.2187 10.3207 13.9939 10.3185 11.6071L10.3188 10.3121C10.32 9.29331 10.3247 8.18963 10.3435 7.00105C10.3687 5.41627 10.3687 4.20882 10.3687 3.35355V3.30324H8.85938C8.4569 3.30324 8.12988 2.97622 8.12988 2.57374C8.12988 2.17125 8.4569 1.84424 8.85938 1.84424L10.7591 1.84378C12.3217 1.84249 13.2933 1.83762 13.664 1.81908C14.0665 1.81908 14.4187 2.12094 14.4187 2.52343C14.4187 2.92591 14.1168 3.27808 13.7143 3.27808C13.1609 3.30324 12.532 3.30324 11.8277 3.30324V9.13924C11.7774 12.988 11.7774 14.8998 11.8277 14.8998C11.8528 15.3777 11.9032 16.1827 12.0038 17.3147C12.0686 17.8979 12.0963 18.3884 12.1188 18.7862L12.1188 18.7862L12.1296 18.9749C13.01 18.8743 13.7395 18.824 14.3181 18.824C14.7205 18.824 15.0476 19.151 15.0476 19.5535C15.0476 19.956 14.7205 20.283 14.3181 20.283C13.7395 20.283 12.8842 20.3584 11.7522 20.4842C11.6516 20.5345 11.551 20.5597 11.4252 20.5597C11.3749 20.5597 11.3246 20.5597 11.2491 20.5345ZM18.6951 20.7358C19.5 20.8112 21.764 20.7861 22.7702 20.6855C23.1727 20.6603 23.4494 20.283 23.4242 19.8805C23.3991 19.478 23.0217 19.2013 22.6193 19.2265C21.7137 19.3271 19.5 19.3522 18.7957 19.2768H18.7202L18.9466 18.0945C18.9946 17.9183 19.0325 17.7422 19.0731 17.553L19.0732 17.5529L19.0732 17.5529L19.0732 17.5525L19.0734 17.5517L19.0734 17.5516C19.0965 17.4441 19.1205 17.3324 19.1478 17.214C19.174 17.1094 19.1971 17.0078 19.2194 16.9102C19.2612 16.7264 19.2998 16.557 19.3491 16.4091C19.3994 16.1827 19.4246 16.0569 19.4246 16.0066C20.1037 12.988 21.0848 9.39079 22.418 5.18987C22.418 5.16472 22.5438 4.88801 22.8205 4.3346C23.0469 3.80634 23.1224 3.35355 23.0469 2.95106C22.8708 1.9197 22.0407 1.76877 21.1351 1.76877C20.9087 1.76877 20.5062 1.76877 19.9277 1.79393C19.6638 1.79966 19.4249 1.8054 19.2107 1.81054C18.4857 1.82794 18.0454 1.8385 17.8901 1.81908C17.6888 1.79393 17.5128 1.84424 17.3618 1.97001C17.1857 2.09579 17.1103 2.27187 17.0851 2.47312C17.06 2.8756 17.3367 3.25293 17.7392 3.27808C17.9552 3.29772 18.4473 3.28669 19.2393 3.26894C19.4617 3.26396 19.7078 3.25844 19.978 3.25293C20.6068 3.22777 20.9842 3.22777 21.1351 3.22777H21.4873C21.5124 3.20262 21.5124 3.20262 21.5376 3.20262C21.5627 3.20262 21.5879 3.20262 21.5627 3.22777C21.5775 3.2204 21.5901 3.21304 21.6005 3.20693C21.6256 3.1922 21.6382 3.18483 21.6382 3.20262C21.6634 3.32839 21.6131 3.47932 21.4873 3.70572C21.3186 4.08908 21.1873 4.36027 21.1048 4.53068C21.052 4.63982 21.0192 4.70762 21.0093 4.73708C19.6761 8.98831 18.6699 12.6358 18.0159 15.7047C17.9937 15.7269 17.9715 15.8275 17.932 16.0065L17.9319 16.0066L17.9152 16.0821L17.714 16.9122C17.6385 17.2392 17.5882 17.5159 17.5379 17.7925L17.5379 17.7926L17.5379 17.7926L17.5379 17.7926C17.4121 18.346 17.3115 18.7988 17.2612 19.1258L17.2503 19.2122C17.2293 19.3774 17.2109 19.5215 17.2109 19.6289V19.8805C17.2864 20.283 17.5128 20.5094 17.8398 20.61L18.0913 20.6855C18.2674 20.7106 18.4687 20.7358 18.6951 20.7358ZM31.1469 20.6855C30.1407 20.7861 27.8767 20.8112 27.0717 20.7358C26.8453 20.7358 26.6441 20.7106 26.468 20.6855L26.2165 20.61C25.8894 20.5094 25.663 20.283 25.5876 19.8805V19.6289C25.5876 19.5215 25.6059 19.3774 25.627 19.2122L25.6379 19.1258C25.6882 18.7988 25.7888 18.346 25.9146 17.7926L25.9146 17.7926L25.9146 17.7926L25.9146 17.7925C25.9649 17.5159 26.0152 17.2392 26.0907 16.9122L26.2919 16.0821L26.3086 16.0066L26.3086 16.0065C26.3481 15.8275 26.3703 15.7269 26.3925 15.7047C27.0466 12.6358 28.0528 8.98831 29.386 4.73708C29.3958 4.70762 29.4286 4.63982 29.4815 4.53068C29.564 4.36027 29.6953 4.08908 29.864 3.70572C29.9897 3.47932 30.04 3.32839 30.0149 3.20262C30.0149 3.18483 30.0023 3.1922 29.9771 3.20693C29.9667 3.21304 29.9542 3.2204 29.9394 3.22777C29.9646 3.20262 29.9394 3.20262 29.9143 3.20262C29.8891 3.20262 29.8891 3.20262 29.864 3.22777H29.5118C29.3608 3.22777 28.9835 3.22777 28.3546 3.25293C28.0844 3.25844 27.8384 3.26396 27.616 3.26894C26.824 3.28669 26.3319 3.29772 26.1158 3.27808C25.7133 3.25293 25.4366 2.8756 25.4618 2.47312C25.487 2.27187 25.5624 2.09579 25.7385 1.97001C25.8894 1.84424 26.0655 1.79393 26.2668 1.81908C26.4221 1.8385 26.8623 1.82794 27.5874 1.81054C27.8015 1.8054 28.0405 1.79966 28.3043 1.79393C28.8829 1.76877 29.2854 1.76877 29.5118 1.76877C30.4174 1.76877 31.2475 1.9197 31.4236 2.95106C31.499 3.35355 31.4236 3.80634 31.1972 4.3346C30.9205 4.88801 30.7947 5.16472 30.7947 5.18987C29.4615 9.39079 28.4804 12.988 27.8012 16.0066C27.8012 16.0569 27.7761 16.1827 27.7258 16.4091C27.6765 16.557 27.6379 16.7264 27.596 16.9102C27.5738 17.0078 27.5507 17.1094 27.5245 17.214C27.4972 17.3324 27.4732 17.4442 27.4501 17.5517L27.4499 17.5525L27.4498 17.5529L27.4498 17.5529L27.4498 17.553C27.4092 17.7422 27.3713 17.9183 27.3233 18.0945L27.0969 19.2768H27.1723C27.8767 19.3522 30.0903 19.3271 30.9959 19.2265C31.3984 19.2013 31.7757 19.478 31.8009 19.8805C31.8261 20.283 31.5493 20.6603 31.1469 20.6855ZM38.4751 10.7391C38.7211 10.7549 38.9235 10.7679 39.0456 10.7743C38.945 8.83738 38.7689 7.10167 38.5425 5.51689C38.2658 3.70572 37.6621 2.74982 36.3791 2.8756C36.1527 2.90075 36.027 2.90075 35.9767 2.90075C35.9263 2.97622 35.876 3.07684 35.8509 3.22777C35.7503 3.75603 35.7503 4.38491 35.7754 5.5672C35.8006 6.14577 35.8006 6.47279 35.8006 6.54825C35.8006 7.73055 35.8257 9.08893 35.876 10.6737C35.9515 10.6485 36.0521 10.6234 36.1276 10.6234C36.6708 10.6234 37.7579 10.6931 38.4751 10.7391Z" fill="white"/>
<path id="MENU" fill-rule="evenodd" clip-rule="evenodd" d="M4.36023 38.6881C4.29812 38.7565 4.16147 38.7906 3.95029 38.7906C3.85092 38.7906 3.63352 38.7782 3.29812 38.7533C2.96272 38.7285 2.60868 38.7161 2.23602 38.7161C1.78881 38.7161 1.4472 38.7254 1.21117 38.744C0.975151 38.7627 0.720494 38.7782 0.447203 38.7906C0.347825 38.7906 0.248446 38.7658 0.149068 38.7161C0.0496892 38.6664 0 38.5608 0 38.3993C0 38.3124 0.0248446 38.1943 0.0745338 38.0453C0.248446 37.4987 0.354036 37.1509 0.391303 37.0018C0.42857 36.8527 0.459625 36.4552 0.48447 35.8093C0.509315 35.1633 0.521737 34.685 0.521737 34.3745V29.1944C0.521737 28.7969 0.51242 28.4149 0.493787 28.0484C0.475153 27.682 0.440992 27.3931 0.391303 27.182C0.341613 26.9708 0.285713 26.7689 0.223602 26.5764C0.16149 26.3838 0.130434 26.2379 0.130434 26.1385C0.130434 25.9894 0.186335 25.8869 0.298135 25.831C0.409936 25.7751 0.521737 25.7472 0.633538 25.7472C0.956518 25.7472 1.2236 25.7627 1.43478 25.7938C1.64596 25.8248 1.90061 25.8404 2.19875 25.8404C2.60868 25.8404 2.89129 25.8248 3.04657 25.7938C3.20185 25.7627 3.35402 25.7472 3.50309 25.7472C3.76396 25.7472 3.96893 25.9211 4.11799 26.2689C4.2298 26.5422 4.3416 26.8093 4.4534 27.0702C4.66458 27.5422 4.83849 27.8776 4.97513 28.0764C5.21116 28.4366 5.4596 28.6167 5.72047 28.6167C5.85712 28.6167 6.00619 28.536 6.16768 28.3745C6.37885 28.1633 6.64593 27.7845 6.96891 27.2379C7.37885 26.5422 7.64904 26.1199 7.77947 25.9708C7.9099 25.8217 8.08071 25.7472 8.29189 25.7472C8.51549 25.7472 8.69562 25.7596 8.83226 25.7845C8.96891 25.8093 9.18009 25.8217 9.4658 25.8217C9.85089 25.8217 10.1521 25.8155 10.3695 25.8031C10.5869 25.7907 10.8074 25.772 11.031 25.7472C11.1925 25.7472 11.3105 25.7782 11.385 25.8404C11.4596 25.9025 11.4968 25.9956 11.4968 26.1199C11.4968 26.4801 11.4223 26.8528 11.2732 27.2379C11.1242 27.623 11.0496 28.2317 11.0496 29.0639V34.7099C11.0496 35.5298 11.1242 36.2937 11.2732 37.0018C11.3229 37.2254 11.3819 37.4863 11.4503 37.7844C11.5186 38.0825 11.5527 38.2937 11.5527 38.4179C11.5527 38.5297 11.5248 38.6198 11.4689 38.6881C11.413 38.7565 11.2981 38.7906 11.1242 38.7906C11 38.7906 10.7639 38.7782 10.4161 38.7533C10.0683 38.7285 9.69561 38.7161 9.2981 38.7161C8.88816 38.7161 8.56518 38.7285 8.32916 38.7533C8.09313 38.7782 7.8509 38.7906 7.60245 38.7906C7.27947 38.7906 7.11798 38.685 7.11798 38.4738C7.27947 37.9645 7.41612 37.4459 7.52792 36.918C7.63972 36.39 7.69562 35.7658 7.69562 35.0453V31.6167C7.69562 31.3807 7.63351 31.2627 7.50928 31.2627C7.44717 31.2627 7.3478 31.3528 7.21115 31.5329C7.0745 31.713 6.96891 31.8465 6.89438 31.9335L6.40991 32.6416C6.21115 32.8776 5.99997 32.9956 5.77637 32.9956C5.55277 32.9956 5.36333 32.9304 5.20805 32.8C5.05277 32.6695 4.83849 32.3621 4.5652 31.8776C4.49066 31.7534 4.40992 31.6198 4.32296 31.477C4.23601 31.3341 4.14284 31.2627 4.04346 31.2627C3.96893 31.2627 3.92234 31.2906 3.90371 31.3465C3.88508 31.4024 3.87576 31.4801 3.87576 31.5795V35.008C3.87576 35.6912 3.93166 36.2999 4.04346 36.8341C4.08073 37.0329 4.18011 37.3683 4.3416 37.8403C4.41613 38.0888 4.4534 38.2813 4.4534 38.4179C4.4534 38.5297 4.42234 38.6198 4.36023 38.6881ZM20.5248 38.6788C20.3322 38.7533 20.0682 38.7906 19.7328 38.7906L17.4968 38.7347L15.2608 38.6974C14.5279 38.6974 13.9875 38.713 13.6397 38.744C13.2919 38.7751 13.0496 38.7906 12.913 38.7906C12.7639 38.7906 12.6242 38.7658 12.4937 38.7161C12.3633 38.6664 12.2981 38.5794 12.2981 38.4552C12.2981 38.095 12.354 37.8093 12.4658 37.5981C12.7142 37.126 12.8385 36.3186 12.8385 35.1757V29.1944C12.8385 28.4366 12.795 27.859 12.708 27.4615C12.5962 27.0515 12.4844 26.6354 12.3726 26.213C12.3726 26.064 12.4347 25.9491 12.559 25.8683C12.6832 25.7876 12.8819 25.7472 13.1552 25.7472L14.4968 25.8031C14.708 25.8031 15.0372 25.8093 15.4844 25.8217C15.8819 25.8328 16.1911 25.8389 16.4119 25.8401L17.8881 25.8404C18.2856 25.8404 18.6894 25.8217 19.0993 25.7845L19.8819 25.7472C20.0558 25.7472 20.1956 25.7845 20.3012 25.859C20.4067 25.9335 20.4595 26.0764 20.4595 26.2876C20.4595 26.4491 20.4471 26.6727 20.4223 26.9584C20.3974 27.2441 20.385 27.5298 20.385 27.8155C20.385 27.9025 20.3912 28.0018 20.4036 28.1136C20.4161 28.2254 20.4378 28.359 20.4689 28.5143C20.4999 28.6695 20.5279 28.8062 20.5527 28.9242C20.5776 29.0422 20.59 29.1509 20.59 29.2503C20.59 29.6354 20.3912 29.8279 19.9937 29.8279C19.8198 29.8279 19.6459 29.7782 19.472 29.6789C19.2732 29.5422 19.1304 29.4428 19.0434 29.3807C18.5838 29.0702 18.0807 28.9149 17.5341 28.9149C17.0869 28.9149 16.7515 29.0018 16.5279 29.1757C16.3043 29.3497 16.1925 29.5608 16.1925 29.8093C16.1925 30.095 16.3229 30.2938 16.5838 30.4056C16.8446 30.5174 17.2049 30.5733 17.6645 30.5733C17.8509 30.5733 18.1645 30.5608 18.6055 30.536C19.0465 30.5111 19.2794 30.4987 19.3043 30.4987C19.739 30.4987 20.0962 30.5515 20.3757 30.6571C20.6552 30.7627 20.7949 30.9708 20.7949 31.2813C20.7949 31.4925 20.6862 31.6757 20.4689 31.831C20.2515 31.9863 19.8819 32.0639 19.3602 32.0639H16.9564C16.6956 32.0639 16.503 32.1136 16.3788 32.213C16.2546 32.3124 16.1925 32.5173 16.1925 32.8279V35.6602C16.1925 36.0577 16.3043 36.3248 16.5279 36.4614C16.6769 36.5484 16.9068 36.5919 17.2173 36.5919H17.4596C17.8819 36.5919 18.2142 36.5732 18.4564 36.536C18.6987 36.4987 18.9937 36.3931 19.3415 36.2192C19.4906 36.1447 19.6397 36.0639 19.7887 35.977C20.0496 35.8155 20.2608 35.7347 20.4223 35.7347C20.5962 35.7347 20.7142 35.7813 20.7763 35.8745C20.8384 35.9676 20.8695 36.0639 20.8695 36.1633C20.8695 36.2875 20.8539 36.4366 20.8229 36.6105C20.7918 36.7844 20.7763 37.0018 20.7763 37.2627L20.8136 38.1943C20.8136 38.4428 20.7173 38.6043 20.5248 38.6788ZM22.472 38.7906C22.5589 38.7906 22.7732 38.7813 23.1148 38.7627C23.4564 38.744 23.8322 38.7347 24.2421 38.7347C24.5775 38.7347 24.8757 38.744 25.1365 38.7627C25.3974 38.7813 25.6707 38.7906 25.9564 38.7906C26.0682 38.7906 26.1707 38.7689 26.2639 38.7254C26.357 38.6819 26.4036 38.5981 26.4036 38.4738C26.267 38.1012 26.1303 37.7223 25.9937 37.3372C25.8695 36.9148 25.8073 36.4242 25.8073 35.8652V31.7285C25.8073 31.4925 25.8291 31.3279 25.8726 31.2347C25.916 31.1416 25.9688 31.095 26.0309 31.095C26.3291 31.095 26.7452 31.449 27.2794 32.1571C27.8632 32.9273 28.1552 33.6416 28.1552 34.3V36.0888C28.1552 36.9211 28.0868 37.449 27.9502 37.6726C27.8135 37.8962 27.7452 38.1384 27.7452 38.3993C27.7452 38.5484 27.8198 38.6602 27.9688 38.7347C28.0558 38.772 28.1552 38.7906 28.267 38.7906C28.5403 38.7782 28.8042 38.7627 29.0589 38.744C29.3135 38.7254 29.5899 38.7161 29.8881 38.7161C30.0496 38.7161 30.298 38.7285 30.6334 38.7533C30.9688 38.7782 31.2545 38.7906 31.4905 38.7906C31.6024 38.7906 31.7017 38.772 31.7887 38.7347C31.8756 38.6974 31.9191 38.6105 31.9191 38.4738L31.621 37.3186C31.5464 36.9211 31.5092 36.3807 31.5092 35.6975V29.213C31.5092 28.5049 31.5527 27.9025 31.6396 27.4056C31.7266 26.9087 31.826 26.4615 31.9378 26.064C31.9378 25.8528 31.7887 25.7472 31.4905 25.7472C31.1427 25.7472 30.8787 25.7565 30.6986 25.7751C30.5185 25.7938 30.18 25.8031 29.6831 25.8031L27.8757 25.7472C27.6396 25.7472 27.4906 25.7782 27.4285 25.8404C27.3663 25.9025 27.3353 25.977 27.3353 26.064C27.3353 26.1137 27.3726 26.182 27.4471 26.2689C27.5713 26.4056 27.6738 26.536 27.7545 26.6602C27.8353 26.7845 27.9129 26.9615 27.9875 27.1913C28.062 27.4211 28.0993 27.654 28.0993 27.89V28.1882C28.0993 28.2503 28.0682 28.3 28.0061 28.3372C27.9937 28.3372 27.9688 28.3435 27.9316 28.3559C27.857 28.3559 27.7204 28.2441 27.5216 28.0205C27.1862 27.6478 26.8508 27.3062 26.5154 26.9956C26.1055 26.5981 25.7639 26.3062 25.4906 26.1199C25.1303 25.8714 24.8136 25.7472 24.5403 25.7472L23.9813 25.7845L23.3477 25.8031L22.5465 25.7845L22.0434 25.7472C21.7701 25.7472 21.6334 25.8776 21.6334 26.1385C21.6334 26.2876 21.6645 26.418 21.7266 26.5298C22.0123 27.064 22.1862 27.449 22.2484 27.6851C22.385 28.1695 22.4533 28.8714 22.4533 29.7907V36.126C22.4533 36.4863 22.4285 36.7782 22.3788 37.0018C22.3291 37.2254 22.2484 37.4739 22.1366 37.7471C21.9875 38.1447 21.9129 38.3745 21.9129 38.4366C21.9129 38.5981 21.972 38.6974 22.09 38.7347C22.208 38.772 22.3353 38.7906 22.472 38.7906ZM40.3508 38.0919C39.6365 38.6571 38.5775 38.9397 37.1738 38.9397C35.5464 38.9397 34.4098 38.5794 33.7638 37.8589C33.3042 37.3496 33.0744 36.6229 33.0744 35.6788V28.859C33.0744 28.623 33.062 28.3062 33.0371 27.9087C33.0123 27.5112 32.9812 27.2441 32.944 27.1074C32.9067 26.9708 32.8539 26.7907 32.7856 26.5671C32.7173 26.3435 32.6831 26.1696 32.6831 26.0453C32.6831 25.8466 32.8073 25.7472 33.0558 25.7472C33.2173 25.7472 33.4533 25.7565 33.7638 25.7751C34.0399 25.7917 34.3895 25.8009 34.8128 25.8027L34.975 25.8031C35.3849 25.8031 35.6955 25.7938 35.9067 25.7751C36.1179 25.7565 36.3601 25.7472 36.6334 25.7472C36.8694 25.7472 36.9874 25.8466 36.9874 26.0453C36.9874 26.0826 36.9657 26.1633 36.9222 26.2876C36.8787 26.4118 36.8352 26.5546 36.7918 26.7161C36.7483 26.8776 36.7141 27.0329 36.6893 27.182C36.5899 27.6292 36.5216 27.9615 36.4843 28.1789C36.447 28.3962 36.4284 28.7099 36.4284 29.1198V34.9894C36.4284 35.3496 36.4843 35.6198 36.5961 35.7999C36.7079 35.9801 36.9191 36.0701 37.2297 36.0701C37.6023 36.0701 37.8508 35.9273 37.975 35.6416C38.0371 35.4925 38.0682 35.2875 38.0682 35.0267V28.5049C38.0682 28.1323 38.0588 27.8466 38.0402 27.6478C38.0216 27.449 37.975 27.2317 37.9005 26.9956C37.8135 26.7845 37.7514 26.6292 37.7141 26.5298C37.6396 26.3435 37.6023 26.1944 37.6023 26.0826C37.6023 25.9708 37.6303 25.8869 37.6862 25.831C37.7421 25.7751 37.8446 25.7472 37.9936 25.7472C38.3166 25.7472 38.6116 25.7534 38.8787 25.7658C39.1458 25.7782 39.4036 25.7907 39.652 25.8031L39.9195 25.8027C40.3852 25.801 40.7153 25.795 40.9098 25.7845C41.1396 25.772 41.3601 25.7596 41.5713 25.7472C41.8197 25.7472 41.9439 25.8466 41.9439 26.0453C41.9439 26.2689 41.8942 26.5112 41.7949 26.772C41.5464 27.4304 41.4222 28.2627 41.4222 29.2689V35.4925C41.4222 36.6602 41.065 37.5266 40.3508 38.0919Z" fill="white"/>
</g>
<g id="003-pizza-slice">
<path id="Path" d="M62.8381 10.2854C62.8381 9.9619 62.7506 9.65982 62.6239 9.37292C61.1391 9.55238 59.6638 9.82916 58.2767 10.194C58.2755 10.2253 58.2668 10.2541 58.2668 10.2854C58.2668 11.5455 59.2924 12.571 60.5525 12.571C61.8123 12.571 62.8381 11.5455 62.8381 10.2854Z" fill="white"/>
<path id="Shape" fill-rule="evenodd" clip-rule="evenodd" d="M81.1222 12.3624C80.2303 12.3624 79.3723 12.1603 78.572 11.7606C77.9414 11.4458 77.2328 11.1601 76.4905 10.8928C76.2021 12.4933 74.8061 13.7138 73.1237 13.7138C71.2329 13.7138 69.6952 12.1758 69.6952 10.2854V9.34434C68.5411 9.21279 67.3851 9.13928 66.2655 9.13928C65.8394 9.13928 65.4051 9.15714 64.9706 9.17678C65.0617 9.53897 65.1239 9.9089 65.1239 10.2854C65.1239 12.8067 63.0737 14.8567 60.5526 14.8567C58.239 14.8567 56.3429 13.1246 56.0426 10.8922C55.3019 11.1592 54.5947 11.4443 53.9656 11.7585C53.1978 12.1425 52.3305 12.3469 51.4579 12.3469C51.4294 12.3469 51.402 12.3413 51.3745 12.3356C51.3489 12.3303 51.3232 12.325 51.2966 12.3243L53.6957 16.7774V28.5706C53.6957 30.461 55.2334 31.999 57.1241 31.999C58.7479 31.999 60.1104 30.8651 60.4642 29.3473L65.2599 38.4069C65.4596 38.7774 65.8459 39.0083 66.2667 39.0083C66.6872 39.0083 67.0735 38.7774 67.2732 38.4069L70.7065 31.8779C70.38 31.952 70.0437 31.999 69.6952 31.999C67.1703 31.999 65.1239 29.9524 65.1239 27.4277C65.1239 24.9031 67.1703 22.8564 69.6952 22.8564C71.6553 22.8564 73.3135 24.0963 73.9632 25.8296L81.2222 12.3484C81.2055 12.3487 81.1895 12.352 81.1735 12.3554C81.1567 12.3589 81.1399 12.3624 81.1222 12.3624ZM63.9811 21.7136C62.0904 21.7136 60.5526 20.1756 60.5526 18.2851C60.5526 17.6536 61.0636 17.1423 61.6954 17.1423C62.327 17.1423 62.8383 17.6536 62.8383 18.2851C62.8383 18.9158 63.3504 19.428 63.9811 19.428C64.6114 19.428 65.1239 18.9158 65.1239 18.2851C65.1239 17.6536 65.6349 17.1423 66.2667 17.1423C66.8983 17.1423 67.4095 17.6536 67.4095 18.2851C67.4095 20.1756 65.8715 21.7136 63.9811 21.7136ZM69.6952 17.1423C69.6952 17.7736 70.2068 18.2851 70.838 18.2851C71.4689 18.2851 71.9808 17.7736 71.9808 17.1423C71.9808 16.5111 71.4689 15.9995 70.838 15.9995C70.2068 15.9995 69.6952 16.5111 69.6952 17.1423Z" fill="white"/>
<path id="Path_2" d="M69.6951 25.1421C68.435 25.1421 67.4094 26.1677 67.4094 27.4277C67.4094 28.6878 68.435 29.7134 69.6951 29.7134C70.9549 29.7134 71.9807 28.6878 71.9807 27.4277C71.9807 26.1677 70.9549 25.1421 69.6951 25.1421Z" fill="white"/>
<path id="Path_3" d="M84.1902 8.18041C85.0348 6.49088 84.3473 4.42725 82.6566 3.58025C78.2404 1.37169 71.9617 0 66.2699 0C60.5748 0 54.2938 1.37169 49.8775 3.58025C48.1856 4.42725 47.4969 6.48969 48.3431 8.1816C49.1698 9.82768 51.287 10.5431 52.9432 9.714C56.4196 7.97625 61.6483 6.85367 66.2654 6.85367C68.1237 6.85367 70.0781 7.04265 71.9807 7.37329V10.2854C71.9807 10.9166 72.4923 11.4282 73.1236 11.4282C73.7545 11.4282 74.2664 10.9166 74.2664 10.2854V7.85274C76.239 8.33368 78.0832 8.96164 79.5897 9.71519C81.2721 10.5524 83.3304 9.89643 84.1902 8.18041Z" fill="white"/>
</g>
</g>
</g>
</svg>
